<svg width="111" height="54" viewBox="0 0 111 54" fill="none" xmlns="http://www.w3.org/2000/svg">
<path d="M109.5 34.5C109.5 36.5694 108.31 38.7518 105.68 40.9364C103.059 43.1136 99.1767 45.1414 94.2472 46.8734C84.4018 50.3326 70.7027 52.5 55.5 52.5C40.2973 52.5 26.5982 50.3326 16.7528 46.8734C11.8233 45.1414 7.94082 43.1136 5.31994 40.9364C2.69003 38.7518 1.5 36.5694 1.5 34.5C1.5 32.4306 2.69003 30.2482 5.31994 28.0636C7.94082 25.8864 11.8233 23.8586 16.7528 22.1266C26.5982 18.6674 40.2973 16.5 55.5 16.5C70.7027 16.5 84.4018 18.6674 94.2472 22.1266C99.1767 23.8586 103.059 25.8864 105.68 28.0636C108.31 30.2482 109.5 32.4306 109.5 34.5Z" stroke="#1889F8" stroke-width="3"/>
<path d="M109.5 27C109.5 28.9839 108.328 31.0983 105.695 33.2297C103.074 35.3508 99.1905 37.3275 94.2586 39.0159C84.4094 42.3877 70.7061 44.5 55.5 44.5C40.2939 44.5 26.5906 42.3877 16.7414 39.0159C11.8095 37.3275 7.92581 35.3508 5.30517 33.2297C2.67184 31.0983 1.5 28.9839 1.5 27C1.5 25.0161 2.67184 22.9017 5.30517 20.7703C7.92581 18.6492 11.8095 16.6725 16.7414 14.9841C26.5906 11.6123 40.2939 9.5 55.5 9.5C70.7061 9.5 84.4094 11.6123 94.2586 14.9841C99.1905 16.6725 103.074 18.6492 105.695 20.7703C108.328 22.9017 109.5 25.0161 109.5 27Z" stroke="#1889F8" stroke-width="3"/>
<path d="M109.5 19.5C109.5 21.5694 108.31 23.7518 105.68 25.9364C103.059 28.1136 99.1767 30.1414 94.2472 31.8734C84.4018 35.3326 70.7027 37.5 55.5 37.5C40.2973 37.5 26.5982 35.3326 16.7528 31.8734C11.8233 30.1414 7.94082 28.1136 5.31994 25.9364C2.69003 23.7518 1.5 21.5694 1.5 19.5C1.5 17.4306 2.69003 15.2482 5.31994 13.0636C7.94082 10.8864 11.8233 8.8586 16.7528 7.12661C26.5982 3.66743 40.2973 1.5 55.5 1.5C70.7027 1.5 84.4018 3.66743 94.2472 7.12661C99.1767 8.8586 103.059 10.8864 105.68 13.0636C108.31 15.2482 109.5 17.4306 109.5 19.5Z" stroke="#1889F8" stroke-width="3"/>
</svg>
